<svg width="675" height="300" viewBox="0 0 675 300" fill="none" xmlns="http://www.w3.org/2000/svg">
<path fill-rule="evenodd" clip-rule="evenodd" d="M271.543 105.524V184.421H190.546L205.744 144.971L190.546 105.523L271.543 105.524Z" fill="#03337D" stroke="#03337D" stroke-width="5.64263" stroke-linecap="round" stroke-linejoin="round"/>
<path opacity="0.93" fill-rule="evenodd" clip-rule="evenodd" d="M403.456 105.524V184.421H469.256L484.454 144.971L469.256 105.523L403.456 105.524Z" fill="#03337D" stroke="#03337D" stroke-width="5.64263" stroke-linecap="round" stroke-linejoin="round"/>
<path d="M337.5 269.382L229.86 207.177V82.7677L337.5 20.5627L445.139 82.7677V207.178L337.5 269.382Z" fill="white" stroke="#0D47A1" stroke-width="14.8796" stroke-linecap="round" stroke-linejoin="round"/>
<path d="M416.258 167.42C411.243 184.924 400.523 200.245 385.805 210.946C371.086 221.646 353.214 227.111 335.034 226.471C316.854 225.83 299.41 219.121 285.48 207.411C271.549 195.701 261.932 179.663 258.16 161.851C254.387 144.038 256.676 125.473 264.662 109.113C272.648 92.7522 285.872 79.5358 302.23 71.5673L337.901 144.931L416.258 167.42Z" fill="#0D47A1" stroke="#0D47A1" stroke-width="13.3916" stroke-linejoin="round"/>
<path d="M286.204 128.16C290.374 115.281 299.193 104.422 310.936 97.7048C322.68 90.9878 336.504 88.8957 349.706 91.8375C362.909 94.7793 374.541 102.544 382.328 113.613C390.116 124.682 393.5 138.26 391.819 151.694C390.138 165.127 383.512 177.45 373.237 186.254C362.962 195.058 349.776 199.71 336.257 199.301L337.899 144.932L286.204 128.16Z" fill="#1976D2" stroke="#1976D2" stroke-width="11.9037" stroke-linecap="round" stroke-linejoin="round"/>
<path d="M351.484 168.482C348.394 170.267 344.983 171.427 341.445 171.893C337.908 172.359 334.313 172.123 330.866 171.199C327.42 170.274 324.189 168.68 321.358 166.505C318.527 164.331 316.152 161.62 314.368 158.527C310.765 152.28 309.788 144.856 311.653 137.889C313.518 130.922 318.072 124.981 324.313 121.375C327.403 119.589 330.814 118.43 334.352 117.963C337.89 117.497 341.485 117.733 344.931 118.657C348.378 119.582 351.609 121.176 354.44 123.351C357.271 125.525 359.646 128.236 361.43 131.33C365.033 137.576 366.01 145 364.144 151.967C362.279 158.935 357.725 164.875 351.484 168.482Z" fill="#42A5F5" stroke="#42A5F5" stroke-width="10.4157" stroke-linecap="round" stroke-linejoin="round"/>
</svg>
