<svg width="1300" height="736" viewBox="0 0 1300 736" fill="none" xmlns="http://www.w3.org/2000/svg"><rect x="30" y="616" width="1269" height="120" rx="8" fill="#20C5BB"/><path d="M554.46 682.05a13.58 13.58 0 0 1-8.387 12.563 13.6 13.6 0 0 1-5.202 1.036h-19.698a19.867 19.867 0 1 1 19.305-27.17h.393a13.59 13.59 0 0 1 13.589 13.589m-52.476 7.321a6.244 6.244 0 0 1-7.46 6.122 6.246 6.246 0 0 1-4.549-8.511 6.242 6.242 0 0 1 12.009 2.389m96.356 5.038a.89.89 0 0 1-.82 1.222h-2.113a1.14 1.14 0 0 1-.758-.437 5.2 5.2 0 0 1-.758-1.079 18 18 0 0 1-.642-1.311c-.196-.446-.348-.892-.464-1.195l-2.675-6.67a.58.58 0 0 0-.553-.374h-16.915a.6.6 0 0 0-.553.374l-2.586 6.67c-.152.312-.33.696-.526 1.168q-.292.69-.669 1.338-.331.572-.758 1.079a1.08 1.08 0 0 1-.785.437h-2.059a.896.896 0 0 1-.879-.798.9.9 0 0 1 .058-.424l14.597-35.668a1.79 1.79 0 0 1 1.65-1.106h1.98a1.78 1.78 0 0 1 1.649 1.115zm-9.969-12.876a.34.34 0 0 0 .284-.153.35.35 0 0 0 .037-.32l-4.619-11.636a159 159 0 0 1-1.578-3.817 40 40 0 0 1-1.008-2.746.4.4 0 0 0-.766 0 43 43 0 0 1-1.017 2.8 80 80 0 0 1-1.632 3.763l-4.53 11.636a.4.4 0 0 0-.021.165.36.36 0 0 0 .182.267q.075.04.16.041zm18.521-6.875a11.7 11.7 0 0 1 3.085-4.833 7.13 7.13 0 0 1 4.896-1.685 9 9 0 0 1 1.658.142q.29.056.571.152a1.154 1.154 0 0 1 .749 1.257l-.241 1.997q-.178.59-.642.589a4 4 0 0 1-1.079-.205 6.75 6.75 0 0 0-6.081 1.453 13.4 13.4 0 0 0-2.675 4.923v16.05a1.127 1.127 0 0 1-1.115 1.124h-1.783a1.135 1.135 0 0 1-1.124-1.124v-24.771a1.124 1.124 0 0 1 1.124-1.124h1.096a1.22 1.22 0 0 1 .892.268c.182.227.301.497.348.784zm37.924-5.092-10.531 25.307a1.22 1.22 0 0 1-1.133.758h-1.917a1.25 1.25 0 0 1-1.132-.758l-10.469-25.307a.693.693 0 0 1 .314-.88.7.7 0 0 1 .328-.083h2.221c.285-.01.565.085.784.268.194.143.347.333.446.553l7.606 19.038c.397 1.043.71 2.116.937 3.21a8.3 8.3 0 0 1 .374-1.605c.178-.527.357-1.062.553-1.605l7.633-19.038a1.17 1.17 0 0 1 1.221-.821h2.105a.71.71 0 0 1 .573.314.7.7 0 0 1 .069.649m5.127 4.048a1.79 1.79 0 0 1 .419-2.202 15.4 15.4 0 0 1 3.567-2.194 13.9 13.9 0 0 1 5.591-1.079c3.032 0 5.35.892 6.848 2.765a11.06 11.06 0 0 1 2.292 7.312v15.72a1.7 1.7 0 0 1-.49 1.198 1.7 1.7 0 0 1-1.195.496 2.1 2.1 0 0 1-.963-.178 1.2 1.2 0 0 1-.491-.758l-.41-3.085q-.991.995-2.095 1.863a14 14 0 0 1-2.185 1.4c-.785.402-1.618.702-2.479.892-.977.197-1.972.293-2.969.285a10.2 10.2 0 0 1-2.881-.401 6.6 6.6 0 0 1-2.389-1.284 6.4 6.4 0 0 1-1.632-2.184 7.6 7.6 0 0 1-.606-3.175 5.8 5.8 0 0 1 .891-3.112 8.1 8.1 0 0 1 2.943-2.622 18.7 18.7 0 0 1 5.216-1.836 42 42 0 0 1 7.803-.812v-2.39a8.1 8.1 0 0 0-1.454-5.216 5.17 5.17 0 0 0-4.253-1.783 8.3 8.3 0 0 0-3.059.499 11.5 11.5 0 0 0-2.122 1.07c-.589.392-1.088.749-1.516 1.079a2 2 0 0 1-1.168.499 1.37 1.37 0 0 1-1.284-.758zm14.856 9.399q-6.928.295-9.987 1.783-3.059 1.49-3.059 3.986a4.15 4.15 0 0 0 1.427 3.567 5.52 5.52 0 0 0 3.406 1.07 8.84 8.84 0 0 0 4.664-1.132 17 17 0 0 0 3.567-2.943zm15.373-10.041a15 15 0 0 1 4.075-3.522c1.6-.895 3.41-1.348 5.243-1.311 3.032 0 5.288.892 6.786 2.791a11.7 11.7 0 0 1 2.238 7.517v16.247a.894.894 0 0 1-.892.892h-2.095a.89.89 0 0 1-.892-.892v-16.247a8.2 8.2 0 0 0-1.543-5.296 5.56 5.56 0 0 0-4.627-1.926 8.2 8.2 0 0 0-4.343 1.195 14 14 0 0 0-3.567 3.227v19.047a.89.89 0 0 1-.581.837.9.9 0 0 1-.355.055h-2.149a.894.894 0 0 1-.892-.892v-25.137a.953.953 0 0 1 .954-.954h1.32a1.036 1.036 0 0 1 1.159.892zm53.118 13.741h.259a.42.42 0 0 1 .258 0q.15.11.321.179a.6.6 0 0 1 .268.232l2.149 2.202a1.1 1.1 0 0 1 0 1.516 15.1 15.1 0 0 1-5.19 3.709 20.8 20.8 0 0 1-8.266 1.481 19.9 19.9 0 0 1-7.776-1.454 17.15 17.15 0 0 1-5.911-4.048 17.6 17.6 0 0 1-3.763-6.197 23 23 0 0 1-1.302-7.928 22.6 22.6 0 0 1 1.364-7.918 18.5 18.5 0 0 1 3.87-6.313 17.7 17.7 0 0 1 6.064-4.164 19.7 19.7 0 0 1 7.855-1.516 19.4 19.4 0 0 1 7.517 1.364 18.2 18.2 0 0 1 4.887 3.005 1.1 1.1 0 0 1 .187 1.48l-.936 1.284c-.392.527-.714.892-.963 1.222a2.6 2.6 0 0 1-.669.58c-.199.1-.419.152-.642.151a2.85 2.85 0 0 1-1.222-.356c-.74-.5-1.417-.892-2.042-1.276a12 12 0 0 0-1.89-.891 10 10 0 0 0-1.98-.5q-1.118-.15-2.247-.142a11.4 11.4 0 0 0-4.975 1.043 11.2 11.2 0 0 0-3.728 2.889 12.1 12.1 0 0 0-2.327 4.459 19.3 19.3 0 0 0-.794 5.617c-.041 1.99.26 3.972.892 5.859a12.4 12.4 0 0 0 2.506 4.28 10.5 10.5 0 0 0 3.781 2.675c1.488.606 3.083.91 4.69.892a18.4 18.4 0 0 0 4.28-.437 8.4 8.4 0 0 0 3.567-1.953 9.2 9.2 0 0 1 1.864-.99m14.597-29.889v37.879a.9.9 0 0 1-.262.63.9.9 0 0 1-.63.262h-4.851a.9.9 0 0 1-.63-.262.9.9 0 0 1-.262-.63v-37.879a.89.89 0 0 1 .892-.892h4.851a.89.89 0 0 1 .892.892m18.698 10.816a15.1 15.1 0 0 1 5.591.99 12.1 12.1 0 0 1 4.281 2.817 12.6 12.6 0 0 1 2.737 4.459c.667 1.889.993 3.882.963 5.885a17.2 17.2 0 0 1-.963 5.912 12.5 12.5 0 0 1-2.737 4.458 12.1 12.1 0 0 1-4.281 2.818 16.28 16.28 0 0 1-11.181 0 11.94 11.94 0 0 1-7.081-7.303c-.664-1.899-.99-3.9-.963-5.912a17 17 0 0 1 .963-5.885 12 12 0 0 1 7.081-7.276 15.1 15.1 0 0 1 5.59-.99zm0 23.38a5.87 5.87 0 0 0 5.154-2.354c1.106-1.578 1.659-3.852 1.659-6.848s-.553-5.35-1.659-6.929a6.75 6.75 0 0 0-7.994-1.764 6.75 6.75 0 0 0-2.314 1.764q-1.658 2.399-1.658 6.929c0 2.996.553 5.27 1.658 6.848a5.87 5.87 0 0 0 5.154 2.354m42.392-22.051v26.626h-3.959a1.625 1.625 0 0 1-1.784-1.169l-.401-2.389a12.3 12.3 0 0 1-3.727 2.916 10.9 10.9 0 0 1-4.896 1.043c-3.031 0-5.35-.954-6.902-2.88a11.45 11.45 0 0 1-2.354-7.482v-16.665a.89.89 0 0 1 .892-.892h4.842a.894.894 0 0 1 .892.892v16.683a6 6 0 0 0 1.159 3.986 4.4 4.4 0 0 0 3.567 1.373 8.13 8.13 0 0 0 6.108-3.031V669.04a.89.89 0 0 1 .892-.891h4.841a.89.89 0 0 1 .892.891m30.514-12.109-.053 37.246a1.47 1.47 0 0 1-1.463 1.471h-2.559a1.62 1.62 0 0 1-1.11-.25 1.62 1.62 0 0 1-.673-.918l-.464-2.737a13.4 13.4 0 0 1-3.843 3.148 10.66 10.66 0 0 1-5.128 1.159 9.2 9.2 0 0 1-4.137-.892 9.1 9.1 0 0 1-3.201-2.675 13.5 13.5 0 0 1-2.096-4.396 21.8 21.8 0 0 1-.758-6.055c0-1.919.301-3.827.892-5.653a14.4 14.4 0 0 1 2.354-4.539 11 11 0 0 1 3.701-3.032 10.8 10.8 0 0 1 4.922-1.105 10.1 10.1 0 0 1 3.986.704 8.7 8.7 0 0 1 2.942 2.033l.107-13.447a.957.957 0 0 1 .954-.936h4.691a.945.945 0 0 1 .945.945zm-6.688 18.226a6.4 6.4 0 0 0-2.47-2.006 7.1 7.1 0 0 0-2.826-.553 5.81 5.81 0 0 0-4.896 2.301c-1.159 1.533-1.783 3.905-1.783 7.133s.508 5.618 1.516 6.955a4.9 4.9 0 0 0 1.816 1.526 4.9 4.9 0 0 0 2.321.49 7.03 7.03 0 0 0 3.567-.847 9.4 9.4 0 0 0 2.764-2.533z" fill="#fff"/><rect y="505" width="496" height="70" rx="8" transform="rotate(-90 0 505)" fill="#057DA3"/><path d="M35.624 404.112q-2.448 0-4.392-1.128a8.14 8.14 0 0 1-3.024-3.096q-1.104-1.968-1.104-4.296 0-2.664 1.32-4.728 1.296-2.088 3.696-3.024v3.288q-1.32.648-1.968 1.8t-.648 2.664q0 1.656.744 2.952t2.136 2.04q1.392.72 3.24.72t3.24-.72q1.392-.744 2.16-2.04.744-1.296.744-2.952 0-1.512-.648-2.664t-1.968-1.8v-3.288q2.4.936 3.696 3.024 1.296 2.064 1.296 4.728 0 2.352-1.08 4.296a8.3 8.3 0 0 1-3.048 3.096q-1.944 1.128-4.392 1.128m-9.384-29.411H44v2.736H26.24zm2.784-12.184q0 .744-.504 1.248a1.7 1.7 0 0 1-1.248.504q-.744 0-1.248-.504a1.7 1.7 0 0 1-.504-1.248q0-.72.504-1.224a1.7 1.7 0 0 1 1.248-.504q.744 0 1.248.504t.504 1.224m1.752-1.344H44v2.736H30.776zm6.288-22.912q.744 0 1.344.096v10.104q1.584-.12 2.544-1.176t.96-2.592q0-2.208-1.848-3.12v-2.952q1.824.6 3 2.184 1.152 1.56 1.152 3.888 0 1.896-.84 3.408a6.3 6.3 0 0 1-2.4 2.352q-1.56.84-3.6.84t-3.576-.816q-1.56-.84-2.4-2.328-.84-1.512-.84-3.456 0-1.872.816-3.336a5.75 5.75 0 0 1 2.304-2.28q1.464-.816 3.384-.816m-.864 2.856q-1.512.024-2.424 1.08t-.912 2.616q0 1.416.912 2.424.888 1.008 2.424 1.2zm-5.64-19.42q0-1.56.648-2.784a4.6 4.6 0 0 1 1.92-1.944q1.272-.696 3.072-.696H44v2.712h-7.392q-1.776 0-2.712.888-.96.888-.96 2.424t.96 2.448q.936.888 2.712.888H44v2.736H30.776v-2.736h1.512a4.55 4.55 0 0 1-1.272-1.704 5.6 5.6 0 0 1-.456-2.232m2.448-19.306h7.32q.744 0 1.08-.336.312-.36.312-1.2v-1.68H44v2.16q0 1.848-.864 2.832t-2.808.984h-7.32v1.56h-2.232v-1.56h-3.288v-2.76h3.288v-3.216h2.232zm11.208-17.738q0 1.56-.552 2.808-.576 1.224-1.536 1.944a3.9 3.9 0 0 1-2.184.768v-2.832q.84-.072 1.416-.792.552-.744.552-1.848 0-1.152-.432-1.776-.456-.648-1.152-.648-.744 0-1.104.72-.36.696-.792 2.232-.408 1.488-.792 2.424a4.35 4.35 0 0 1-1.176 1.632q-.792.672-2.088.672a3.2 3.2 0 0 1-1.92-.624q-.888-.624-1.392-1.776-.504-1.176-.504-2.688 0-2.256 1.152-3.624 1.128-1.392 3.096-1.488v2.736q-.888.072-1.416.72t-.528 1.752q0 1.08.408 1.656t1.08.576q.528 0 .888-.384a2.9 2.9 0 0 0 .576-.936q.192-.552.504-1.632.384-1.44.792-2.352.384-.936 1.152-1.608t2.04-.696q1.128 0 2.016.624t1.392 1.776q.504 1.128.504 2.664M44 247.334l-6.672 3.84v2.088H44v2.736H27.32v-5.76q0-1.92.672-3.24.672-1.344 1.8-1.992 1.128-.672 2.52-.672 1.632 0 2.976.96 1.32.936 1.8 2.904L44 244.07zm-8.856 5.928v-3.024q0-1.536-.768-2.304-.768-.792-2.064-.792t-2.016.768q-.744.768-.744 2.328v3.024zm1.92-31.748q.744 0 1.344.096v10.104q1.584-.12 2.544-1.176t.96-2.592q0-2.208-1.848-3.12v-2.952q1.824.6 3 2.184 1.152 1.56 1.152 3.888 0 1.896-.84 3.408a6.3 6.3 0 0 1-2.4 2.352q-1.56.84-3.6.84t-3.576-.816q-1.56-.84-2.4-2.328-.84-1.512-.84-3.456 0-1.872.816-3.336a5.75 5.75 0 0 1 2.304-2.28q1.464-.816 3.384-.816m-.864 2.856q-1.512.024-2.424 1.08t-.912 2.616q0 1.416.912 2.424.888 1.008 2.424 1.2zm1.128-11.836q-1.992 0-3.528-.816-1.536-.84-2.376-2.256-.864-1.44-.864-3.192 0-1.536.624-2.712.624-1.2 1.512-1.848h-1.92v-2.76h19.512v2.76H42.08q.888.648 1.512 1.872t.624 2.784a5.9 5.9 0 0 1-.864 3.12q-.888 1.392-2.448 2.232-1.584.816-3.576.816m.048-10.824q-1.368 0-2.376.576-1.008.552-1.536 1.464a3.86 3.86 0 0 0-.528 1.968q0 1.056.528 1.968.504.912 1.512 1.488.984.552 2.352.552t2.4-.552q1.032-.576 1.584-1.488.528-.936.528-1.968 0-1.056-.528-1.968t-1.536-1.464q-1.032-.576-2.4-.576m-6.6-25.53H44v2.736h-1.56q.816.648 1.296 1.704.456 1.032.456 2.208 0 1.56-.648 2.808-.648 1.224-1.92 1.944-1.272.696-3.072.696h-7.776v-2.712h7.368q1.776 0 2.736-.888.936-.888.936-2.424t-.936-2.424q-.96-.912-2.736-.912h-7.368zm6.288-22.93q.744 0 1.344.096v10.104q1.584-.12 2.544-1.176t.96-2.592q0-2.208-1.848-3.12v-2.952q1.824.6 3 2.184 1.152 1.56 1.152 3.888 0 1.896-.84 3.408a6.3 6.3 0 0 1-2.4 2.352q-1.56.84-3.6.84t-3.576-.816q-1.56-.84-2.4-2.328-.84-1.512-.84-3.456 0-1.872.816-3.336a5.75 5.75 0 0 1 2.304-2.28q1.464-.816 3.384-.816m-.864 2.856q-1.512.024-2.424 1.08t-.912 2.616q0 1.416.912 2.424.888 1.008 2.424 1.2zm8.016-17.548q0 1.56-.552 2.808-.576 1.224-1.536 1.944a3.9 3.9 0 0 1-2.184.768v-2.832q.84-.072 1.416-.792.552-.744.552-1.848 0-1.152-.432-1.776-.456-.648-1.152-.648-.744 0-1.104.72-.36.696-.792 2.232-.408 1.488-.792 2.424a4.35 4.35 0 0 1-1.176 1.632q-.792.672-2.088.672a3.2 3.2 0 0 1-1.92-.624q-.888-.624-1.392-1.776-.504-1.176-.504-2.688 0-2.256 1.152-3.624 1.128-1.392 3.096-1.488v2.736q-.888.072-1.416.72t-.528 1.752q0 1.08.408 1.656t1.08.576q.528 0 .888-.384a2.9 2.9 0 0 0 .576-.936q.192-.552.504-1.632.384-1.44.792-2.352.384-.936 1.152-1.608t2.04-.696q1.128 0 2.016.624t1.392 1.776q.504 1.128.504 2.664m-11.208-18.412h7.32q.744 0 1.08-.336.312-.36.312-1.2v-1.68H44v2.16q0 1.848-.864 2.832t-2.808.984h-7.32v1.56h-2.232v-1.56h-3.288v-2.76h3.288v-3.216h2.232z" fill="#fff"/><rect x="198" y="164" width="545" height="222" rx="8" fill="#42A5F5"/><path d="M295.24 290v-28.8h6.12V290zm21.555 0v-28.8h6.4l16.12 19.2v-19.2h6.28V290h-6.4l-16.2-19.28V290zm55.121 0v-22.56h-11.28v-6.24h28.8v6.24h-11.28V290zm32.592 0v-28.8h26.6v6.24h-20.32v5.04h16.36v6.24h-16.36v5.04h20.32V290zm42.585 0v-28.84h6.2v22.6h22.6V290zm42.131 0v-28.8h6.12V290zm37.395 0-16.68-28.8h7.2l12.08 20.92 12.08-20.92h7.16l-16.68 28.8zm36.357 0v-28.8h26.6v6.24h-20.32v5.04h16.36v6.24h-16.36v5.04h20.32V290zm64.905 0-8.36-9.96h8.12l6.64 7.84V290zm-22.36 0v-28.76h22.84q1.64 0 2.96.8a6 6 0 0 1 2.16 2.16q.84 1.36.84 2.96v7.44q0 1.6-.84 2.96a6 6 0 0 1-2.16 2.16q-1.32.8-2.96.8l-16.64.04V290zm6.2-15.72h16.32v-6.84h-16.32z" fill="#fff"/><path d="m278 615.66 8.66-8.66-8.66-8.66-8.66 8.66zm-1.5-224.637a1.5 1.5 0 0 0 3 0zm3 10.045a1.5 1.5 0 0 0-3 0zm-3 10.046a1.5 1.5 0 0 0 3 0zm3 10.045a1.5 1.5 0 0 0-3 0zm-3 10.046a1.5 1.5 0 0 0 3 0zm3 10.045a1.5 1.5 0 0 0-3 0zm-3 10.045a1.5 1.5 0 1 0 3 0zm3 10.046a1.5 1.5 0 1 0-3 0zm-3 10.045a1.5 1.5 0 1 0 3 0zm3 10.046a1.5 1.5 0 1 0-3 0zm-3 10.045a1.5 1.5 0 1 0 3 0zm3 10.046a1.5 1.5 0 1 0-3 0zm-3 10.045a1.5 1.5 0 1 0 3 0zm3 10.046a1.5 1.5 0 1 0-3 0zm-3 10.045a1.5 1.5 0 1 0 3 0zm3 10.046a1.5 1.5 0 1 0-3 0zm-3 10.045a1.5 1.5 0 0 0 3 0zm3 10.045a1.5 1.5 0 0 0-3 0zm-3 10.046a1.5 1.5 0 0 0 3 0zm3 10.045a1.5 1.5 0 0 0-3 0zm-3 10.046a1.5 1.5 0 0 0 3 0zm3 10.045a1.5 1.5 0 0 0-3 0zM276.5 386v5.023h3V386zm0 15.068v10.046h3v-10.046zm0 20.091v10.046h3v-10.046zm0 20.091v10.045h3V441.25zm0 20.091v10.045h3v-10.045zm0 20.091v10.045h3v-10.045zm0 20.091v10.045h3v-10.045zm0 20.091v10.045h3v-10.045zm0 20.091v10.045h3v-10.045zm0 20.09v10.046h3v-10.046zm0 20.091v10.046h3v-10.046zm0 20.091V607h3v-5.023zM743.34 244l8.66 8.66 8.66-8.66-8.66-8.66zm13.66 1.5a1.5 1.5 0 0 0 0-3zm10-3a1.5 1.5 0 0 0 0 3zm10 3a1.5 1.5 0 0 0 0-3zm10-3a1.5 1.5 0 0 0 0 3zm10 3a1.5 1.5 0 0 0 0-3zm10-3a1.5 1.5 0 0 0 0 3zm10 3a1.5 1.5 0 0 0 0-3zm10-3a1.5 1.5 0 0 0 0 3zm10 3a1.5 1.5 0 0 0 0-3zm10-3a1.5 1.5 0 0 0 0 3zm10 3a1.5 1.5 0 0 0 0-3zm10-3a1.5 1.5 0 0 0 0 3zm-115 3h5v-3h-5zm15 0h10v-3h-10zm20 0h10v-3h-10zm20 0h10v-3h-10zm20 0h10v-3h-10zm20 0h10v-3h-10zm20 0h5v-3h-5zm7.66 28.5-8.66-8.66-8.66 8.66 8.66 8.66zM751 275.5a1.5 1.5 0 0 0 0-3zm10-3a1.5 1.5 0 0 0 0 3zm10 3a1.5 1.5 0 0 0 0-3zm10-3a1.5 1.5 0 0 0 0 3zm10 3a1.5 1.5 0 0 0 0-3zm10-3a1.5 1.5 0 0 0 0 3zm10 3a1.5 1.5 0 0 0 0-3zm10-3a1.5 1.5 0 0 0 0 3zm10 3a1.5 1.5 0 0 0 0-3zm10-3a1.5 1.5 0 0 0 0 3zm10 3a1.5 1.5 0 0 0 0-3zm10-3a1.5 1.5 0 0 0 0 3zm-115 3h5v-3h-5zm15 0h10v-3h-10zm20 0h10v-3h-10zm20 0h10v-3h-10zm20 0h10v-3h-10zm20 0h10v-3h-10zm20 0h5v-3h-5zM198.66 274l-8.66-8.66-8.66 8.66 8.66 8.66zM75 275.5a1.5 1.5 0 0 0 0-3zm10-3a1.5 1.5 0 0 0 0 3zm10 3a1.5 1.5 0 0 0 0-3zm10-3a1.5 1.5 0 0 0 0 3zm10 3a1.5 1.5 0 0 0 0-3zm10-3a1.5 1.5 0 0 0 0 3zm10 3a1.5 1.5 0 0 0 0-3zm10-3a1.5 1.5 0 0 0 0 3zm10 3a1.5 1.5 0 0 0 0-3zm10-3a1.5 1.5 0 0 0 0 3zm10 3a1.5 1.5 0 0 0 0-3zm10-3a1.5 1.5 0 0 0 0 3zm-115 3h5v-3h-5zm15 0h10v-3H85zm20 0h10v-3h-10zm20 0h10v-3h-10zm20 0h10v-3h-10zm20 0h10v-3h-10zm20 0h5v-3h-5zM69.34 244l8.66 8.66 8.66-8.66-8.66-8.66zM83 245.5a1.5 1.5 0 0 0 0-3zm10-3a1.5 1.5 0 0 0 0 3zm10 3a1.5 1.5 0 0 0 0-3zm10-3a1.5 1.5 0 0 0 0 3zm10 3a1.5 1.5 0 0 0 0-3zm10-3a1.5 1.5 0 0 0 0 3zm10 3a1.5 1.5 0 0 0 0-3zm10-3a1.5 1.5 0 0 0 0 3zm10 3a1.5 1.5 0 0 0 0-3zm10-3a1.5 1.5 0 0 0 0 3zm10 3a1.5 1.5 0 0 0 0-3zm10-3a1.5 1.5 0 0 0 0 3zm-115 3h5v-3h-5zm15 0h10v-3H93zm20 0h10v-3h-10zm20 0h10v-3h-10zm20 0h10v-3h-10zm20 0h10v-3h-10zm20 0h5v-3h-5zm190 370.16 8.66-8.66-8.66-8.66-8.66 8.66zm-1.5-224.637a1.5 1.5 0 0 0 3 0zm3 10.045a1.5 1.5 0 0 0-3 0zm-3 10.046a1.5 1.5 0 0 0 3 0zm3 10.045a1.5 1.5 0 0 0-3 0zm-3 10.046a1.5 1.5 0 0 0 3 0zm3 10.045a1.5 1.5 0 0 0-3 0zm-3 10.045a1.5 1.5 0 1 0 3 0zm3 10.046a1.5 1.5 0 1 0-3 0zm-3 10.045a1.5 1.5 0 1 0 3 0zm3 10.046a1.5 1.5 0 1 0-3 0zm-3 10.045a1.5 1.5 0 1 0 3 0zm3 10.046a1.5 1.5 0 1 0-3 0zm-3 10.045a1.5 1.5 0 1 0 3 0zm3 10.046a1.5 1.5 0 1 0-3 0zm-3 10.045a1.5 1.5 0 1 0 3 0zm3 10.046a1.5 1.5 0 1 0-3 0zm-3 10.045a1.5 1.5 0 0 0 3 0zm3 10.045a1.5 1.5 0 0 0-3 0zm-3 10.046a1.5 1.5 0 0 0 3 0zm3 10.045a1.5 1.5 0 0 0-3 0zm-3 10.046a1.5 1.5 0 0 0 3 0zm3 10.045a1.5 1.5 0 0 0-3 0zM381.5 386v5.023h3V386zm0 15.068v10.046h3v-10.046zm0 20.091v10.046h3v-10.046zm0 20.091v10.045h3V441.25zm0 20.091v10.045h3v-10.045zm0 20.091v10.045h3v-10.045zm0 20.091v10.045h3v-10.045zm0 20.091v10.045h3v-10.045zm0 20.091v10.045h3v-10.045zm0 20.09v10.046h3v-10.046zm0 20.091v10.046h3v-10.046zm0 20.091V607h3v-5.023z" fill="#FFBA01"/><path stroke="#8E8E8E" stroke-width="2" stroke-linecap="round" stroke-linejoin="round" stroke-dasharray="6 20" d="M876 39h423v450H876z"/><rect x="915" y="91.5" width="345" height="81" rx="8" fill="#112D57"/><path d="M962.876 131.832q0-3.264 1.472-5.856 1.472-2.624 4-4.096 2.56-1.472 5.664-1.472 3.648 0 6.368 1.76t3.968 4.992h-3.488q-.929-2.016-2.688-3.104-1.728-1.088-4.16-1.088-2.336 0-4.192 1.088t-2.912 3.104q-1.056 1.984-1.056 4.672 0 2.656 1.056 4.672 1.056 1.984 2.912 3.072t4.192 1.088q2.432 0 4.16-1.056 1.76-1.088 2.688-3.104h3.488q-1.248 3.2-3.968 4.96-2.72 1.728-6.368 1.728-3.103 0-5.664-1.44-2.528-1.472-4-4.064t-1.472-5.856m28.719-12.512V143h-2.912v-23.68zm6.467 3.296a1.92 1.92 0 0 1-1.408-.576 1.92 1.92 0 0 1-.576-1.408q0-.832.576-1.408a1.92 1.92 0 0 1 1.408-.576q.8 0 1.344.576.576.576.576 1.408t-.576 1.408a1.78 1.78 0 0 1-1.344.576m1.408 2.848V143h-2.912v-17.536zm20.96 8.096q0 .832-.09 1.76h-14.02c.11 1.728.69 3.083 1.76 4.064 1.09.96 2.4 1.44 3.94 1.44 1.26 0 2.3-.288 3.13-.864a4.67 4.67 0 0 0 1.79-2.368h3.14q-.705 2.528-2.82 4.128c-1.4 1.045-3.15 1.568-5.24 1.568-1.67 0-3.16-.373-4.48-1.12-1.3-.747-2.33-1.803-3.08-3.168-.74-1.387-1.12-2.987-1.12-4.8s.37-3.403 1.09-4.768c.73-1.365 1.74-2.411 3.04-3.136 1.33-.747 2.84-1.12 4.55-1.12q2.49 0 4.41 1.088a7.46 7.46 0 0 1 2.95 3.008q1.05 1.888 1.05 4.288m-3.01-.608c0-1.109-.24-2.059-.73-2.848a4.6 4.6 0 0 0-2.02-1.824c-.83-.427-1.76-.64-2.78-.64q-2.205 0-3.78 1.408c-1.02.939-1.61 2.24-1.76 3.904zm15.4-7.808c2.13 0 3.86.651 5.18 1.952 1.33 1.28 1.99 3.136 1.99 5.568V143h-2.88v-9.92c0-1.749-.44-3.083-1.31-4-.88-.939-2.07-1.408-3.59-1.408-1.53 0-2.76.48-3.68 1.44-.89.96-1.34 2.357-1.34 4.192V143h-2.91v-17.536h2.91v2.496a5.76 5.76 0 0 1 2.33-2.08q1.515-.736 3.3-.736m15.48 2.72V138.2q0 1.28.54 1.824.54.512 1.89.512h2.14V143h-2.62c-1.62 0-2.84-.373-3.65-1.12s-1.21-1.973-1.21-3.68v-10.336h-2.28v-2.4h2.28v-4.416h2.91v4.416h4.57v2.4zm8.55-7.168h3.23l-3.07 7.264h-2.05zm12.76 22.592c-1.34 0-2.55-.224-3.62-.672-1.06-.469-1.91-1.109-2.52-1.92-.62-.832-.96-1.781-1.03-2.848h3.01c.08.875.49 1.589 1.22 2.144q1.11.832 2.91.832c1.11 0 1.98-.245 2.62-.736q.96-.736.96-1.856 0-1.152-1.02-1.696c-.69-.384-1.74-.757-3.17-1.12-1.3-.341-2.37-.683-3.2-1.024a6 6 0 0 1-2.11-1.568q-.87-1.056-.87-2.752c0-.896.27-1.717.8-2.464.54-.747 1.29-1.333 2.28-1.76q1.47-.672 3.36-.672c1.94 0 3.5.491 4.7 1.472q1.785 1.471 1.92 4.032h-2.91c-.07-.917-.44-1.653-1.12-2.208-.66-.555-1.56-.832-2.69-.832-1.05 0-1.88.224-2.5.672s-.92 1.035-.92 1.76q0 .864.54 1.44.57.544 1.41.896.855.32 2.37.736c1.25.341 2.28.683 3.07 1.024q1.185.48 2.01 1.472.87.992.9 2.592c0 .96-.27 1.824-.8 2.592s-1.29 1.376-2.27 1.824q-1.44.64-3.33.64m26.11-.064q-2.205 0-3.96-.768c-1.16-.533-2.06-1.259-2.72-2.176-.67-.939-1.01-2.016-1.03-3.232h3.11c.1 1.045.53 1.931 1.28 2.656.76.704 1.87 1.056 3.32 1.056q2.085 0 3.27-1.024c.81-.704 1.21-1.6 1.21-2.688 0-.853-.23-1.547-.7-2.08a4.5 4.5 0 0 0-1.76-1.216q-1.05-.416-2.85-.896c-1.47-.384-2.65-.768-3.55-1.152-.88-.384-1.63-.981-2.27-1.792q-.93-1.248-.93-3.328 0-1.824.93-3.232c.62-.939 1.48-1.664 2.59-2.176q1.695-.768 3.87-.768c2.09 0 3.8.523 5.12 1.568 1.35 1.045 2.1 2.432 2.27 4.16h-3.2c-.1-.853-.55-1.6-1.34-2.24-.79-.661-1.84-.992-3.14-.992q-1.815 0-2.97.96c-.77.619-1.15 1.493-1.15 2.624 0 .811.22 1.472.67 1.984.47.512 1.03.907 1.69 1.184q1.035.384 2.85.896c1.47.405 2.66.811 3.55 1.216q1.35.576 2.31 1.824.96 1.216.96 3.328 0 1.632-.87 3.072c-.57.96-1.43 1.739-2.56 2.336s-2.46.896-4 .896m15.26-15.36V138.2c0 .853.19 1.461.55 1.824q.54.512 1.89.512h2.14V143h-2.62c-1.62 0-2.84-.373-3.65-1.12s-1.22-1.973-1.22-3.68v-10.336h-2.27v-2.4h2.27v-4.416h2.91v4.416h4.58v2.4zm15.76 15.424c-1.65 0-3.14-.373-4.48-1.12-1.33-.747-2.37-1.803-3.14-3.168-.75-1.387-1.12-2.987-1.12-4.8 0-1.792.39-3.371 1.15-4.736.79-1.387 1.86-2.443 3.2-3.168 1.35-.747 2.85-1.12 4.52-1.12 1.66 0 3.16.373 4.51 1.12 1.34.725 2.4 1.771 3.17 3.136.78 1.365 1.18 2.955 1.18 4.768s-.41 3.413-1.22 4.8c-.79 1.365-1.86 2.421-3.23 3.168-1.36.747-2.88 1.12-4.54 1.12m0-2.56q1.56 0 2.94-.736c.92-.491 1.65-1.227 2.21-2.208.58-.981.86-2.176.86-3.584s-.27-2.603-.83-3.584c-.55-.981-1.28-1.707-2.17-2.176a6 6 0 0 0-2.92-.736 6.04 6.04 0 0 0-2.94.736c-.88.469-1.58 1.195-2.11 2.176-.54.981-.8 2.176-.8 3.584 0 1.429.25 2.635.77 3.616.53.981 1.23 1.717 2.11 2.208q1.305.704 2.88.704m15.73-12.416a5.6 5.6 0 0 1 2.18-2.336q1.44-.832 3.48-.832v3.008h-.76c-3.27 0-4.9 1.771-4.9 5.312V143h-2.91v-17.536h2.91zm7.94 5.856c0-1.792.36-3.36 1.09-4.704q1.08-2.048 2.97-3.168 1.92-1.12 4.26-1.12c1.53 0 2.87.331 4 .992s1.97 1.493 2.53 2.496v-3.2h2.94V143h-2.94v-3.264c-.58 1.024-1.44 1.877-2.6 2.56q-1.695.992-3.96.992-2.34 0-4.23-1.152t-2.97-3.232c-.73-1.387-1.09-2.965-1.09-4.736m14.85.032c0-1.323-.27-2.475-.8-3.456-.54-.981-1.26-1.728-2.18-2.24-.9-.533-1.89-.8-2.98-.8-1.08 0-2.08.256-2.97.768-.9.512-1.61 1.259-2.15 2.24-.53.981-.8 2.133-.8 3.456 0 1.344.27 2.517.8 3.52.54.981 1.25 1.739 2.15 2.272.89.512 1.89.768 2.97.768 1.09 0 2.08-.256 2.98-.768.92-.533 1.64-1.291 2.18-2.272.53-1.003.8-2.165.8-3.488m15.09-9.024c1.52 0 2.84.331 3.97.992 1.15.661 2.01 1.493 2.56 2.496v-3.2h2.94v17.92q0 2.4-1.02 4.256-1.02 1.888-2.94 2.944c-1.26.704-2.73 1.056-4.42 1.056q-3.45 0-5.76-1.632c-1.54-1.088-2.44-2.571-2.72-4.448h2.88q.48 1.6 1.98 2.56c1.01.661 2.21.992 3.62.992q2.4 0 3.9-1.504c1.03-1.003 1.54-2.411 1.54-4.224v-3.68c-.58 1.024-1.43 1.877-2.56 2.56s-2.45 1.024-3.97 1.024c-1.56 0-2.97-.384-4.25-1.152-1.26-.768-2.25-1.845-2.98-3.232s-1.09-2.965-1.09-4.736c0-1.792.36-3.36 1.09-4.704.73-1.365 1.72-2.421 2.98-3.168 1.28-.747 2.69-1.12 4.25-1.12m6.53 9.024c0-1.323-.27-2.475-.8-3.456s-1.26-1.728-2.18-2.24q-1.335-.8-2.97-.8c-1.09 0-2.08.256-2.98.768-.89.512-1.61 1.259-2.14 2.24-.54.981-.8 2.133-.8 3.456 0 1.344.26 2.517.8 3.52.53.981 1.25 1.739 2.14 2.272.9.512 1.89.768 2.98.768q1.635 0 2.97-.768c.92-.533 1.65-1.291 2.18-2.272.53-1.003.8-2.165.8-3.488m23.87-.64c0 .555-.04 1.141-.1 1.76h-14.02c.11 1.728.7 3.083 1.76 4.064 1.09.96 2.4 1.44 3.94 1.44 1.26 0 2.3-.288 3.14-.864a4.72 4.72 0 0 0 1.79-2.368h3.13a7.6 7.6 0 0 1-2.81 4.128q-2.115 1.568-5.25 1.568c-1.66 0-3.16-.373-4.48-1.12-1.3-.747-2.33-1.803-3.07-3.168-.75-1.387-1.12-2.987-1.12-4.8s.36-3.403 1.09-4.768c.72-1.365 1.73-2.411 3.04-3.136 1.32-.747 2.83-1.12 4.54-1.12 1.66 0 3.14.363 4.42 1.088a7.37 7.37 0 0 1 2.94 3.008c.7 1.259 1.06 2.688 1.06 4.288m-3.01-.608c0-1.109-.25-2.059-.74-2.848a4.63 4.63 0 0 0-2.01-1.824c-.84-.427-1.76-.64-2.79-.64-1.47 0-2.73.469-3.77 1.408-1.03.939-1.62 2.24-1.76 3.904z" fill="#fff"/><rect x="915" y="222.5" width="345" height="82" rx="8" fill="#EC912D"/><path d="M952.536 274.724q-2.208 0-3.968-.768-1.728-.8-2.72-2.176-.992-1.408-1.024-3.232h3.104a4.18 4.18 0 0 0 1.28 2.656q1.152 1.056 3.328 1.056 2.08 0 3.264-1.024 1.216-1.056 1.216-2.688 0-1.28-.704-2.08a4.5 4.5 0 0 0-1.76-1.216q-1.056-.416-2.848-.896-2.208-.576-3.552-1.152-1.312-.576-2.272-1.792-.928-1.248-.928-3.328 0-1.824.928-3.232.929-1.408 2.592-2.176 1.696-.768 3.872-.768 3.136 0 5.12 1.568 2.016 1.568 2.272 4.16h-3.2q-.16-1.28-1.344-2.24-1.184-.992-3.136-.992-1.824 0-2.976.96-1.152.928-1.152 2.624 0 1.216.672 1.984a4.8 4.8 0 0 0 1.696 1.184q1.024.384 2.848.896 2.208.608 3.552 1.216 1.344.576 2.304 1.824.96 1.216.96 3.328a5.87 5.87 0 0 1-.864 3.072q-.864 1.44-2.56 2.336t-4 .896m11.165-17.536q.225-2.945 2.272-4.608 2.048-1.664 5.312-1.664 2.177 0 3.744.8 1.6.768 2.4 2.112.832 1.344.832 3.04 0 1.984-1.152 3.424-1.12 1.44-2.944 1.856v.16q2.08.511 3.296 2.016t1.216 3.936q0 1.824-.832 3.296-.831 1.44-2.496 2.272-1.663.832-4 .832-3.391 0-5.568-1.76-2.175-1.792-2.432-5.056h2.816q.225 1.92 1.568 3.136 1.344 1.216 3.584 1.216t3.392-1.152q1.184-1.184 1.184-3.04 0-2.4-1.6-3.456t-4.832-1.056h-.736v-2.432h.768q2.945-.031 4.448-.96 1.504-.96 1.504-2.944 0-1.696-1.12-2.72-1.087-1.024-3.136-1.024-1.983 0-3.2 1.024-1.215 1.024-1.44 2.752zm38.029 17.536q-3.101 0-5.662-1.44a10.93 10.93 0 0 1-4.064-4.064q-1.472-2.624-1.472-5.888t1.472-5.856q1.505-2.624 4.064-4.064 2.561-1.472 5.662-1.472 3.135 0 5.7 1.472c1.7.96 3.05 2.304 4.03 4.032q1.47 2.592 1.47 5.888t-1.47 5.888a10.7 10.7 0 0 1-4.03 4.064q-2.565 1.44-5.7 1.44m0-2.528c1.56 0 2.96-.363 4.19-1.088 1.26-.725 2.24-1.76 2.95-3.104.72-1.344 1.09-2.901 1.09-4.672 0-1.792-.37-3.349-1.09-4.672q-1.065-2.016-2.91-3.104-1.86-1.088-4.23-1.088c-1.58 0-2.984.363-4.222 1.088q-1.855 1.088-2.944 3.104-1.056 1.984-1.056 4.672 0 2.656 1.056 4.672 1.089 2.016 2.944 3.104c1.259.725 2.662 1.088 4.222 1.088m17.96-11.968c.6-1.045 1.47-1.899 2.62-2.56s2.47-.992 3.94-.992c1.58 0 3 .373 4.25 1.12 1.26.747 2.26 1.803 2.98 3.168.73 1.344 1.09 2.912 1.09 4.704 0 1.771-.36 3.349-1.09 4.736-.72 1.387-1.73 2.464-3.01 3.232-1.26.768-2.66 1.152-4.22 1.152-1.52 0-2.85-.331-4-.992-1.13-.661-1.99-1.504-2.56-2.528v3.232h-2.91v-23.68h2.91zm11.9 5.44c0-1.323-.26-2.475-.8-3.456-.53-.981-1.26-1.728-2.17-2.24-.9-.512-1.89-.768-2.98-.768-1.07 0-2.06.267-2.98.8-.89.512-1.62 1.269-2.17 2.272-.53.981-.8 2.123-.8 3.424 0 1.323.27 2.485.8 3.488.55.981 1.28 1.739 2.17 2.272a6 6 0 0 0 2.98.768c1.09 0 2.08-.256 2.98-.768a5.74 5.74 0 0 0 2.17-2.272c.54-1.003.8-2.176.8-3.52m8.38-11.552a1.92 1.92 0 0 1-1.41-.576q-.54-.576-.54-1.408t.54-1.408a1.92 1.92 0 0 1 1.41-.576q.825 0 1.38.576.57.576.57 1.408t-.57 1.408q-.555.576-1.38.576m1.44 24.192c0 1.557-.4 2.699-1.18 3.424-.79.725-1.95 1.088-3.46 1.088h-1.7v-2.464h1.22c.81 0 1.38-.16 1.7-.48q.51-.48.51-1.632v-21.28h2.91zm20.93-13.248c0 .555-.03 1.141-.1 1.76h-14.01c.1 1.728.69 3.083 1.76 4.064q1.635 1.44 3.93 1.44c1.26 0 2.31-.288 3.14-.864a4.72 4.72 0 0 0 1.79-2.368h3.14q-.705 2.527-2.82 4.128-2.115 1.568-5.25 1.568c-1.66 0-3.15-.373-4.48-1.12-1.3-.747-2.32-1.803-3.07-3.168-.75-1.387-1.12-2.987-1.12-4.8s.36-3.403 1.09-4.768c.72-1.365 1.74-2.411 3.04-3.136 1.32-.747 2.84-1.12 4.54-1.12 1.67 0 3.14.363 4.42 1.088a7.37 7.37 0 0 1 2.94 3.008c.71 1.259 1.06 2.688 1.06 4.288m-3.01-.608c0-1.109-.24-2.059-.73-2.848a4.7 4.7 0 0 0-2.02-1.824c-.83-.427-1.76-.64-2.78-.64q-2.22 0-3.78 1.408c-1.02.939-1.61 2.24-1.76 3.904zm5.76 1.248c0-1.813.37-3.392 1.09-4.736.73-1.365 1.73-2.421 3.01-3.168 1.3-.747 2.78-1.12 4.45-1.12q3.225 0 5.31 1.568c1.41 1.045 2.34 2.496 2.78 4.352h-3.13c-.3-1.067-.89-1.909-1.76-2.528-.85-.619-1.92-.928-3.2-.928-1.67 0-3.01.576-4.03 1.728-1.03 1.131-1.54 2.741-1.54 4.832 0 2.112.51 3.744 1.54 4.896 1.02 1.152 2.36 1.728 4.03 1.728 1.28 0 2.35-.299 3.2-.896s1.44-1.451 1.76-2.56h3.13c-.46 1.792-1.4 3.232-2.81 4.32q-2.115 1.6-5.28 1.6c-1.67 0-3.15-.373-4.45-1.12-1.28-.747-2.28-1.803-3.01-3.168-.72-1.365-1.09-2.965-1.09-4.8m24.08-6.336V269.7c0 .853.18 1.461.55 1.824.36.341.99.512 1.88.512h2.15v2.464h-2.63c-1.62 0-2.83-.373-3.64-1.12s-1.22-1.973-1.22-3.68v-10.336h-2.27v-2.4h2.27v-4.416h2.91v4.416h4.58v2.4zm23.71 15.36c-1.47 0-2.79-.256-3.97-.768-1.15-.533-2.06-1.259-2.72-2.176q-.99-1.408-1.02-3.232h3.1a4.23 4.23 0 0 0 1.28 2.656q1.155 1.056 3.33 1.056c1.39 0 2.47-.341 3.26-1.024.81-.704 1.22-1.6 1.22-2.688 0-.853-.23-1.547-.7-2.08a4.5 4.5 0 0 0-1.76-1.216q-1.065-.416-2.85-.896c-1.47-.384-2.66-.768-3.55-1.152q-1.32-.576-2.28-1.792c-.61-.832-.92-1.941-.92-3.328 0-1.216.31-2.293.92-3.232.62-.939 1.49-1.664 2.6-2.176q1.695-.768 3.87-.768c2.09 0 3.8.523 5.12 1.568 1.34 1.045 2.1 2.432 2.27 4.16h-3.2c-.11-.853-.55-1.6-1.34-2.24-.79-.661-1.84-.992-3.14-.992-1.22 0-2.21.32-2.98.96-.76.619-1.15 1.493-1.15 2.624 0 .811.23 1.472.67 1.984.47.512 1.04.907 1.7 1.184q1.02.384 2.85.896c1.47.405 2.65.811 3.55 1.216.9.384 1.66.992 2.3 1.824q.96 1.216.96 3.328c0 1.088-.28 2.112-.86 3.072s-1.43 1.739-2.56 2.336-2.46.896-4 .896m15.26-15.36V269.7c0 .853.18 1.461.55 1.824.36.341.99.512 1.88.512h2.15v2.464h-2.63c-1.62 0-2.83-.373-3.64-1.12-.82-.747-1.22-1.973-1.22-3.68v-10.336h-2.27v-2.4h2.27v-4.416h2.91v4.416h4.58v2.4zm15.75 15.424c-1.64 0-3.13-.373-4.48-1.12-1.32-.747-2.36-1.803-3.13-3.168-.75-1.387-1.12-2.987-1.12-4.8 0-1.792.38-3.371 1.15-4.736.79-1.387 1.86-2.443 3.2-3.168 1.34-.747 2.85-1.12 4.51-1.12 1.67 0 3.17.373 4.51 1.12 1.35.725 2.4 1.771 3.17 3.136.79 1.365 1.19 2.955 1.19 4.768s-.41 3.413-1.22 4.8a8.3 8.3 0 0 1-3.23 3.168c-1.37.747-2.88 1.12-4.55 1.12m0-2.56c1.05 0 2.03-.245 2.95-.736.91-.491 1.65-1.227 2.21-2.208.57-.981.86-2.176.86-3.584s-.28-2.603-.83-3.584c-.56-.981-1.28-1.707-2.18-2.176a5.95 5.95 0 0 0-2.91-.736q-1.605 0-2.94.736c-.88.469-1.58 1.195-2.12 2.176-.53.981-.8 2.176-.8 3.584 0 1.429.26 2.635.77 3.616.53.981 1.24 1.717 2.11 2.208q1.32.704 2.88.704m15.74-12.416c.51-1.003 1.23-1.781 2.17-2.336.96-.555 2.12-.832 3.49-.832v3.008h-.77q-4.89 0-4.89 5.312v9.536h-2.92v-17.536h2.92zm7.93 5.856c0-1.792.37-3.36 1.09-4.704.73-1.365 1.72-2.421 2.98-3.168 1.28-.747 2.7-1.12 4.25-1.12 1.54 0 2.87.331 4 .992s1.98 1.493 2.53 2.496v-3.2h2.95V274.5h-2.95v-3.264c-.57 1.024-1.44 1.877-2.59 2.56-1.13.661-2.45.992-3.97.992-1.56 0-2.96-.384-4.22-1.152s-2.25-1.845-2.98-3.232c-.72-1.387-1.09-2.965-1.09-4.736m14.85.032c0-1.323-.27-2.475-.8-3.456s-1.26-1.728-2.17-2.24c-.9-.533-1.89-.8-2.98-.8s-2.08.256-2.98.768c-.89.512-1.61 1.259-2.14 2.24s-.8 2.133-.8 3.456c0 1.344.27 2.517.8 3.52.53.981 1.25 1.739 2.14 2.272.9.512 1.89.768 2.98.768s2.08-.256 2.98-.768a5.74 5.74 0 0 0 2.17-2.272c.53-1.003.8-2.165.8-3.488m15.1-9.024c1.51 0 2.84.331 3.97.992 1.15.661 2 1.493 2.56 2.496v-3.2h2.94v17.92q0 2.4-1.02 4.256a7.3 7.3 0 0 1-2.95 2.944q-1.89 1.056-4.41 1.056-3.465 0-5.76-1.632c-1.54-1.088-2.45-2.571-2.72-4.448h2.88q.48 1.6 1.98 2.56c1 .661 2.21.992 3.62.992q2.4 0 3.9-1.504c1.02-1.003 1.54-2.411 1.54-4.224v-3.68c-.58 1.024-1.43 1.877-2.56 2.56s-2.46 1.024-3.97 1.024q-2.34 0-4.26-1.152-1.89-1.152-2.97-3.232c-.73-1.387-1.09-2.965-1.09-4.736 0-1.792.36-3.36 1.09-4.704q1.08-2.047 2.97-3.168 1.92-1.12 4.26-1.12m6.53 9.024c0-1.323-.27-2.475-.8-3.456-.54-.981-1.26-1.728-2.18-2.24-.9-.533-1.89-.8-2.98-.8-1.08 0-2.08.256-2.97.768-.9.512-1.61 1.259-2.15 2.24-.53.981-.8 2.133-.8 3.456 0 1.344.27 2.517.8 3.52.54.981 1.25 1.739 2.15 2.272.89.512 1.89.768 2.97.768 1.09 0 2.08-.256 2.98-.768.92-.533 1.64-1.291 2.18-2.272.53-1.003.8-2.165.8-3.488m23.86-.64q0 .832-.09 1.76h-14.02c.11 1.728.69 3.083 1.76 4.064 1.09.96 2.4 1.44 3.94 1.44 1.25 0 2.3-.288 3.13-.864a4.72 4.72 0 0 0 1.79-2.368h3.14q-.705 2.527-2.82 4.128c-1.4 1.045-3.15 1.568-5.24 1.568-1.67 0-3.16-.373-4.48-1.12-1.31-.747-2.33-1.803-3.08-3.168-.74-1.387-1.12-2.987-1.12-4.8s.37-3.403 1.09-4.768c.73-1.365 1.74-2.411 3.04-3.136 1.32-.747 2.84-1.12 4.55-1.12q2.49 0 4.41 1.088a7.46 7.46 0 0 1 2.95 3.008q1.05 1.888 1.05 4.288m-3.01-.608c0-1.109-.24-2.059-.73-2.848a4.65 4.65 0 0 0-2.02-1.824c-.83-.427-1.76-.64-2.78-.64q-2.205 0-3.78 1.408c-1.02.939-1.61 2.24-1.76 3.904z" fill="#fff"/><rect x="915" y="354.5" width="345" height="82" rx="8" fill="#42A5F5"/><path d="M962.376 384.196V406.5h-2.912v-22.304zm13.507 4.448q3.2 0 5.184 1.952 1.984 1.92 1.984 5.568V406.5h-2.88v-9.92q0-2.624-1.312-4-1.312-1.408-3.584-1.408-2.304 0-3.68 1.44-1.344 1.44-1.344 4.192v9.696h-2.912v-17.536h2.912v2.496a5.8 5.8 0 0 1 2.336-2.08q1.504-.736 3.296-.736m15.477 2.72V401.7q0 1.28.544 1.824.543.512 1.888.512h2.144v2.464h-2.624q-2.433 0-3.648-1.12t-1.216-3.68v-10.336h-2.272v-2.4h2.272v-4.416h2.912v4.416h4.576v2.4zm24.1 5.696q0 .832-.09 1.76h-14.02c.11 1.728.7 3.083 1.76 4.064 1.09.96 2.4 1.44 3.94 1.44 1.26 0 2.3-.288 3.13-.864a4.74 4.74 0 0 0 1.8-2.368h3.13c-.47 1.685-1.41 3.061-2.81 4.128q-2.115 1.568-5.25 1.568c-1.67 0-3.16-.373-4.48-1.12-1.3-.747-2.33-1.803-3.074-3.168q-1.12-2.08-1.12-4.8t1.088-4.768 3.036-3.136c1.33-.747 2.84-1.12 4.55-1.12q2.49 0 4.41 1.088c1.28.725 2.27 1.728 2.95 3.008q1.05 1.888 1.05 4.288m-3-.608c0-1.109-.25-2.059-.74-2.848a4.6 4.6 0 0 0-2.02-1.824c-.83-.427-1.76-.64-2.78-.64q-2.205 0-3.78 1.408c-1.02.939-1.61 2.24-1.76 3.904zm9.76-13.632v23.68h-2.91v-23.68zm6.47 3.296q-.84 0-1.41-.576a1.9 1.9 0 0 1-.58-1.408c0-.555.19-1.024.58-1.408q.57-.576 1.41-.576c.53 0 .98.192 1.34.576.38.384.58.853.58 1.408s-.2 1.024-.58 1.408c-.36.384-.81.576-1.34.576m1.4 2.848V406.5h-2.91v-17.536zm11.5 14.848 5.44-14.848h3.1l-6.88 17.536h-3.39l-6.88-17.536h3.13zm27.41-6.752c0 .555-.04 1.141-.1 1.76h-14.02c.11 1.728.7 3.083 1.76 4.064 1.09.96 2.4 1.44 3.94 1.44 1.26 0 2.3-.288 3.14-.864a4.72 4.72 0 0 0 1.79-2.368h3.13a7.6 7.6 0 0 1-2.81 4.128q-2.115 1.568-5.25 1.568c-1.66 0-3.16-.373-4.48-1.12-1.3-.747-2.33-1.803-3.07-3.168-.75-1.387-1.12-2.987-1.12-4.8s.36-3.403 1.09-4.768c.72-1.365 1.73-2.411 3.04-3.136 1.32-.747 2.83-1.12 4.54-1.12 1.66 0 3.14.363 4.42 1.088a7.37 7.37 0 0 1 2.94 3.008c.7 1.259 1.06 2.688 1.06 4.288m-3.01-.608c0-1.109-.25-2.059-.74-2.848a4.63 4.63 0 0 0-2.01-1.824c-.84-.427-1.76-.64-2.79-.64-1.47 0-2.73.469-3.77 1.408-1.03.939-1.62 2.24-1.76 3.904zm9.76-4.64a5.6 5.6 0 0 1 2.18-2.336c.96-.555 2.12-.832 3.49-.832v3.008h-.77c-3.27 0-4.9 1.771-4.9 5.312v9.536h-2.91v-17.536h2.91zm24.63 14.912c-1.47 0-2.79-.256-3.97-.768-1.15-.533-2.06-1.259-2.72-2.176q-.99-1.408-1.02-3.232h3.1a4.23 4.23 0 0 0 1.28 2.656q1.155 1.056 3.33 1.056c1.39 0 2.47-.341 3.26-1.024.81-.704 1.22-1.6 1.22-2.688 0-.853-.23-1.547-.7-2.08a4.5 4.5 0 0 0-1.76-1.216q-1.065-.416-2.85-.896c-1.47-.384-2.66-.768-3.55-1.152q-1.32-.576-2.28-1.792c-.61-.832-.92-1.941-.92-3.328 0-1.216.31-2.293.92-3.232.62-.939 1.49-1.664 2.6-2.176q1.695-.768 3.87-.768c2.09 0 3.8.523 5.12 1.568 1.34 1.045 2.1 2.432 2.27 4.16h-3.2c-.11-.853-.55-1.6-1.34-2.24-.79-.661-1.84-.992-3.14-.992-1.22 0-2.21.32-2.98.96-.76.619-1.15 1.493-1.15 2.624 0 .811.23 1.472.67 1.984.47.512 1.04.907 1.7 1.184q1.02.384 2.85.896c1.47.405 2.65.811 3.55 1.216.9.384 1.66.992 2.3 1.824q.96 1.216.96 3.328c0 1.088-.28 2.112-.86 3.072s-1.43 1.739-2.56 2.336-2.46.896-4 .896m15.26-15.36V401.7c0 .853.18 1.461.55 1.824.36.341.99.512 1.88.512h2.15v2.464h-2.63c-1.62 0-2.83-.373-3.64-1.12-.82-.747-1.22-1.973-1.22-3.68v-10.336h-2.27v-2.4h2.27v-4.416h2.91v4.416h4.58v2.4zm15.75 15.424c-1.64 0-3.13-.373-4.48-1.12-1.32-.747-2.36-1.803-3.13-3.168-.75-1.387-1.12-2.987-1.12-4.8 0-1.792.38-3.371 1.15-4.736.79-1.387 1.86-2.443 3.2-3.168 1.34-.747 2.85-1.12 4.51-1.12 1.67 0 3.17.373 4.51 1.12 1.35.725 2.4 1.771 3.17 3.136.79 1.365 1.19 2.955 1.19 4.768s-.41 3.413-1.22 4.8a8.3 8.3 0 0 1-3.23 3.168c-1.37.747-2.88 1.12-4.55 1.12m0-2.56c1.05 0 2.03-.245 2.95-.736.91-.491 1.65-1.227 2.21-2.208.57-.981.86-2.176.86-3.584s-.28-2.603-.83-3.584c-.56-.981-1.28-1.707-2.18-2.176a5.95 5.95 0 0 0-2.91-.736q-1.605 0-2.94.736c-.88.469-1.58 1.195-2.12 2.176-.53.981-.8 2.176-.8 3.584 0 1.429.26 2.635.77 3.616.53.981 1.24 1.717 2.11 2.208q1.32.704 2.88.704m15.74-12.416c.51-1.003 1.23-1.781 2.17-2.336.96-.555 2.12-.832 3.49-.832v3.008h-.77q-4.89 0-4.89 5.312v9.536h-2.92v-17.536h2.92zm7.93 5.856c0-1.792.37-3.36 1.09-4.704.73-1.365 1.72-2.421 2.98-3.168 1.28-.747 2.7-1.12 4.25-1.12 1.54 0 2.87.331 4 .992s1.98 1.493 2.53 2.496v-3.2h2.95V406.5h-2.95v-3.264c-.57 1.024-1.44 1.877-2.59 2.56-1.13.661-2.45.992-3.97.992-1.56 0-2.96-.384-4.22-1.152s-2.25-1.845-2.98-3.232c-.72-1.387-1.09-2.965-1.09-4.736m14.85.032c0-1.323-.27-2.475-.8-3.456s-1.26-1.728-2.17-2.24c-.9-.533-1.89-.8-2.98-.8s-2.08.256-2.98.768c-.89.512-1.61 1.259-2.14 2.24s-.8 2.133-.8 3.456c0 1.344.27 2.517.8 3.52.53.981 1.25 1.739 2.14 2.272.9.512 1.89.768 2.98.768s2.08-.256 2.98-.768a5.74 5.74 0 0 0 2.17-2.272c.53-1.003.8-2.165.8-3.488m15.1-9.024c1.51 0 2.84.331 3.97.992 1.15.661 2 1.493 2.56 2.496v-3.2h2.94v17.92q0 2.4-1.02 4.256a7.3 7.3 0 0 1-2.95 2.944q-1.89 1.056-4.41 1.056-3.465 0-5.76-1.632c-1.54-1.088-2.45-2.571-2.72-4.448h2.88q.48 1.6 1.98 2.56c1 .661 2.21.992 3.62.992q2.4 0 3.9-1.504c1.02-1.003 1.54-2.411 1.54-4.224v-3.68c-.58 1.024-1.43 1.877-2.56 2.56s-2.46 1.024-3.97 1.024q-2.34 0-4.26-1.152-1.89-1.152-2.97-3.232c-.73-1.387-1.09-2.965-1.09-4.736 0-1.792.36-3.36 1.09-4.704q1.08-2.048 2.97-3.168 1.92-1.12 4.26-1.12m6.53 9.024c0-1.323-.27-2.475-.8-3.456-.54-.981-1.26-1.728-2.18-2.24-.9-.533-1.89-.8-2.98-.8-1.08 0-2.08.256-2.97.768-.9.512-1.61 1.259-2.15 2.24-.53.981-.8 2.133-.8 3.456 0 1.344.27 2.517.8 3.52.54.981 1.25 1.739 2.15 2.272.89.512 1.89.768 2.97.768 1.09 0 2.08-.256 2.98-.768.92-.533 1.64-1.291 2.18-2.272.53-1.003.8-2.165.8-3.488m23.86-.64q0 .832-.09 1.76h-14.02c.11 1.728.69 3.083 1.76 4.064 1.09.96 2.4 1.44 3.94 1.44 1.25 0 2.3-.288 3.13-.864a4.72 4.72 0 0 0 1.79-2.368h3.14q-.705 2.527-2.82 4.128c-1.4 1.045-3.15 1.568-5.24 1.568-1.67 0-3.16-.373-4.48-1.12-1.31-.747-2.33-1.803-3.08-3.168-.74-1.387-1.12-2.987-1.12-4.8s.37-3.403 1.09-4.768c.73-1.365 1.74-2.411 3.04-3.136 1.32-.747 2.84-1.12 4.55-1.12q2.49 0 4.41 1.088a7.46 7.46 0 0 1 2.95 3.008q1.05 1.888 1.05 4.288m-3.01-.608c0-1.109-.24-2.059-.73-2.848a4.65 4.65 0 0 0-2.02-1.824c-.83-.427-1.76-.64-2.78-.64q-2.205 0-3.78 1.408c-1.02.939-1.61 2.24-1.76 3.904z" fill="#fff"/><path d="M891.68 1.16V15h-1.82V4.68L885.26 15h-1.28l-4.62-10.34V15h-1.82V1.16h1.96l5.12 11.44 5.12-11.44zm10.907 1.38V7.2h5.08v1.5h-5.08v4.8h5.68V15h-7.5V1.04h7.5v1.5zm18.773-1.48q2.28 0 3.94.86 1.68.84 2.56 2.42.9 1.58.9 3.72t-.9 3.72q-.88 1.56-2.56 2.4-1.66.82-3.94.82h-4.34V1.06zm0 12.44q2.7 0 4.12-1.42 1.42-1.44 1.42-4.02 0-2.6-1.44-4.06-1.42-1.46-4.1-1.46h-2.52V13.5zm17.621-12.44V15h-1.82V1.06zm17.342 10.84h-6.08l-1.12 3.1h-1.92l5.04-13.86h2.1l5.02 13.86h-1.92zm-.52-1.48-2.52-7.04-2.52 7.04zm27.509 4.72q-1.38 0-2.48-.48-1.08-.5-1.7-1.36-.62-.88-.64-2.02h1.94a2.6 2.6 0 0 0 .8 1.66q.72.66 2.08.66 1.299 0 2.04-.64.76-.66.76-1.68 0-.8-.44-1.3a2.8 2.8 0 0 0-1.1-.76q-.66-.26-1.78-.56-1.38-.36-2.22-.72a3.7 3.7 0 0 1-1.42-1.12q-.58-.78-.58-2.08 0-1.14.58-2.02.579-.88 1.62-1.36 1.06-.48 2.42-.48 1.96 0 3.2.98 1.26.98 1.42 2.6h-2q-.1-.8-.84-1.4-.74-.62-1.96-.62-1.14 0-1.86.6-.72.58-.72 1.64 0 .76.42 1.24.44.48 1.06.74.64.24 1.78.56 1.38.38 2.22.76.84.36 1.44 1.14.6.76.6 2.08 0 1.02-.54 1.92t-1.6 1.46-2.5.56m21.898-14.08v1.48h-3.8V15h-1.82V2.54h-3.82V1.06zm14.56 14.08q-1.935 0-3.54-.9a6.83 6.83 0 0 1-2.54-2.54c-.61-1.093-.92-2.32-.92-3.68s.31-2.58.92-3.66c.63-1.093 1.47-1.94 2.54-2.54q1.605-.92 3.54-.92c1.31 0 2.49.307 3.56.92q1.605.9 2.52 2.52c.61 1.08.92 2.307.92 3.68s-.31 2.6-.92 3.68a6.64 6.64 0 0 1-2.52 2.54c-1.07.6-2.25.9-3.56.9m0-1.58c.97 0 1.85-.227 2.62-.68.79-.453 1.4-1.1 1.84-1.94.45-.84.68-1.813.68-2.92 0-1.12-.23-2.093-.68-2.92-.44-.84-1.05-1.487-1.82-1.94q-1.155-.68-2.64-.68t-2.64.68c-.77.453-1.39 1.1-1.84 1.94q-.66 1.24-.66 2.92 0 1.66.66 2.92c.45.84 1.07 1.487 1.84 1.94q1.185.68 2.64.68m22.74 1.44-3.32-5.7h-2.2V15h-1.82V1.06h4.5c1.06 0 1.94.18 2.66.54.74.36 1.28.847 1.64 1.46q.54.92.54 2.1 0 1.44-.84 2.54c-.54.733-1.37 1.22-2.48 1.46l3.5 5.84zm-5.52-7.16h2.68q1.485 0 2.22-.72c.5-.493.74-1.147.74-1.96 0-.827-.24-1.467-.74-1.92q-.72-.68-2.22-.68h-2.68zm24.59 4.06h-6.08l-1.12 3.1h-1.92l5.04-13.86h2.1l5.02 13.86h-1.92zm-.52-1.48-2.52-7.04-2.52 7.04zm22.32-5.32q-.585-1.22-1.68-1.88c-.74-.453-1.59-.68-2.56-.68q-1.47 0-2.64.68c-.78.44-1.39 1.08-1.84 1.92q-.66 1.24-.66 2.88t.66 2.88c.45.827 1.06 1.467 1.84 1.92q1.17.66 2.64.66 2.04 0 3.36-1.22c.88-.813 1.39-1.913 1.54-3.3h-5.56V7.48h7.5v1.4a7.1 7.1 0 0 1-1.08 3.16c-.62.947-1.42 1.7-2.42 2.26-1 .547-2.12.82-3.34.82q-1.95 0-3.54-.9a6.76 6.76 0 0 1-2.54-2.54c-.62-1.08-.92-2.3-.92-3.66s.3-2.58.92-3.66a6.57 6.57 0 0 1 2.54-2.54q1.59-.92 3.54-.92c1.48 0 2.78.367 3.92 1.1s1.98 1.767 2.5 3.1zm12.82-2.56V7.2h5.08v1.5h-5.08v4.8h5.68V15h-7.5V1.04h7.5v1.5zM210.78 150.9h-6.08l-1.12 3.1h-1.92l5.04-13.86h2.1l5.02 13.86h-1.92zm-.52-1.48-2.52-7.04-2.52 7.04zm13.577-9.36V154h-1.82v-13.94zm22.253 0V154h-1.82v-13.94zM266.152 154h-1.82l-7.32-11.1V154h-1.82v-13.96h1.82l7.32 11.08v-11.08h1.82zm29.015-13.94v1.48h-3.8V154h-1.82v-12.46h-3.82v-1.48zm18.98 0V154h-1.82v-6.32h-7.1V154h-1.82v-13.94h1.82v6.12h7.1v-6.12zm10.928 1.48v4.66h5.08v1.5h-5.08v4.8h5.68v1.5h-7.5v-13.96h7.5v1.5zm39.906-1.38V154h-1.82v-10.32l-4.6 10.32h-1.28l-4.62-10.34V154h-1.82v-13.84h1.96l5.12 11.44 5.12-11.44zm10.906-.1V154h-1.82v-13.94zm13.442 0q2.28 0 3.94.86 1.68.84 2.56 2.42.9 1.58.9 3.72t-.9 3.72q-.88 1.56-2.56 2.4-1.66.82-3.94.82h-4.34v-13.94zm0 12.44q2.7 0 4.12-1.42 1.42-1.44 1.42-4.02 0-2.6-1.44-4.06-1.42-1.46-4.1-1.46h-2.52v10.96zm20.141-12.44q2.28 0 3.94.86 1.68.84 2.56 2.42.9 1.58.9 3.72t-.9 3.72q-.88 1.56-2.56 2.4-1.66.82-3.94.82h-4.34v-13.94zm0 12.44q2.7 0 4.12-1.42 1.42-1.44 1.42-4.02 0-2.6-1.44-4.06-1.42-1.46-4.1-1.46h-2.52v10.96zm17.62.02h4.88V154h-6.7v-13.94h1.82zm14.633-10.98v4.66h5.08v1.5h-5.08v4.8h5.68v1.5h-7.5v-13.96h7.5v1.5zM258.416 559.312q-1.632 0-2.928-.736a5.35 5.35 0 0 1-2.048-2q-.736-1.28-.736-2.832 0-1.824.88-3.184t2.496-1.984v1.744q-1.008.463-1.552 1.344-.544.864-.544 2.08 0 1.168.544 2.096t1.552 1.456q.992.528 2.336.528 1.328 0 2.336-.528a3.8 3.8 0 0 0 1.536-1.456q.544-.928.544-2.096 0-1.216-.528-2.08-.544-.88-1.552-1.344v-1.744q1.6.624 2.48 1.984.864 1.36.864 3.184 0 1.553-.72 2.832a5.4 5.4 0 0 1-2.032 2q-1.296.736-2.928.736m-5.568-26.295H264v1.456h-5.056v5.68H264v1.456h-11.152v-1.456h4.896v-5.68h-4.896zm8.672-13.878v4.864l2.48.896v1.536l-11.088-4.032v-1.68L264 516.707v1.536zm-1.184.416-5.632 2.016 5.632 2.016zm-1.92-8.862q-1.632 0-2.928-.736a5.34 5.34 0 0 1-2.048-2q-.736-1.28-.736-2.832 0-1.824.88-3.184t2.496-1.984v1.744q-1.008.465-1.552 1.344-.544.864-.544 2.08 0 1.169.544 2.096.544.928 1.552 1.456.992.528 2.336.528 1.328 0 2.336-.528a3.8 3.8 0 0 0 1.536-1.456q.544-.927.544-2.096 0-1.216-.528-2.08-.544-.879-1.552-1.344v-1.744q1.6.625 2.48 1.984.864 1.36.864 3.184 0 1.553-.72 2.832a5.4 5.4 0 0 1-2.032 2q-1.296.736-2.928.736m-5.568-26.295H264v1.456h-5.056v5.68H264v1.456h-11.152v-1.456h4.896v-5.68h-4.896zm0-8.742H264v1.456h-11.152zM264 459.606v1.456l-8.88 5.856H264v1.456h-11.168v-1.456l8.864-5.856h-8.864v-1.456zm-7.92-15.73a3.4 3.4 0 0 0-1.504 1.344q-.544.88-.544 2.048t.544 2.112q.528.929 1.536 1.472.992.528 2.304.528 1.313 0 2.304-.528a3.9 3.9 0 0 0 1.536-1.472q.528-.944.528-2.112 0-1.632-.976-2.688-.976-1.055-2.64-1.232v4.448h-1.184v-6h1.12q1.376.129 2.528.864a5.44 5.44 0 0 1 1.808 1.936q.656 1.2.656 2.672 0 1.553-.72 2.832a5.46 5.46 0 0 1-2.032 2.032q-1.296.736-2.928.736t-2.928-.736a5.3 5.3 0 0 1-2.032-2.032q-.736-1.28-.736-2.832 0-1.776.88-3.136.88-1.376 2.48-2zM946.86 592.02q0-2.04.92-3.66a6.7 6.7 0 0 1 2.5-2.56q1.6-.92 3.54-.92 2.28 0 3.98 1.1t2.48 3.12h-2.18q-.58-1.26-1.68-1.94-1.08-.68-2.6-.68-1.46 0-2.62.68t-1.82 1.94q-.66 1.24-.66 2.92 0 1.66.66 2.92a4.77 4.77 0 0 0 1.82 1.92q1.16.68 2.62.68 1.52 0 2.6-.66 1.1-.68 1.68-1.94h2.18q-.78 2-2.48 3.1-1.7 1.08-3.98 1.08-1.94 0-3.54-.9a6.7 6.7 0 0 1-2.5-2.54q-.92-1.62-.92-3.66m23.949 5.5h4.88V599h-6.7v-13.94h1.82zm19.133 1.62q-1.94 0-3.54-.9a6.8 6.8 0 0 1-2.54-2.54q-.92-1.64-.92-3.68t.92-3.66a6.64 6.64 0 0 1 2.54-2.54q1.6-.92 3.54-.92 1.96 0 3.56.92a6.53 6.53 0 0 1 2.52 2.52q.92 1.62.92 3.68t-.92 3.68a6.7 6.7 0 0 1-2.52 2.54q-1.6.9-3.56.9m0-1.58q1.46 0 2.62-.68 1.18-.68 1.84-1.94.68-1.26.68-2.92 0-1.68-.68-2.92-.66-1.26-1.82-1.94t-2.64-.68-2.64.68-1.84 1.94q-.66 1.24-.66 2.92 0 1.66.66 2.92.68 1.26 1.84 1.94 1.18.68 2.64.68m17.178-12.5v8.82q0 1.86.9 2.76c.62.6 1.46.9 2.54.9 1.07 0 1.9-.3 2.5-.9.62-.6.92-1.52.92-2.76v-8.82h1.82v8.8c0 1.16-.23 2.14-.7 2.94a4.36 4.36 0 0 1-1.9 1.76c-.78.387-1.67.58-2.66.58-.98 0-1.88-.193-2.68-.58a4.5 4.5 0 0 1-1.88-1.76c-.45-.8-.68-1.78-.68-2.94v-8.8zm22.06 0c1.52 0 2.83.287 3.94.86 1.12.56 1.97 1.367 2.56 2.42q.9 1.58.9 3.72t-.9 3.72c-.59 1.04-1.44 1.84-2.56 2.4-1.11.547-2.42.82-3.94.82h-4.34v-13.94zm0 12.44c1.8 0 3.17-.473 4.12-1.42.95-.96 1.42-2.3 1.42-4.02q0-2.6-1.44-4.06c-.95-.973-2.31-1.46-4.1-1.46h-2.52v10.96zm28.95-12.44V599h-1.82v-13.94zM1078.2 599h-1.82l-7.32-11.1V599h-1.82v-13.96h1.82l7.32 11.08v-11.08h1.82zm16.98-13.94v1.48h-6.06v4.7h4.92v1.48h-4.92V599h-1.82v-13.94zm15.54 13.94-3.32-5.7h-2.2v5.7h-1.82v-13.94h4.5c1.05 0 1.94.18 2.66.54.73.36 1.28.847 1.64 1.46q.54.92.54 2.1 0 1.44-.84 2.54c-.55.733-1.38 1.22-2.48 1.46l3.5 5.84zm-5.52-7.16h2.68q1.47 0 2.22-.72c.49-.493.74-1.147.74-1.96 0-.827-.25-1.467-.74-1.92q-.72-.68-2.22-.68h-2.68zm24.58 4.06h-6.08l-1.12 3.1h-1.92l5.04-13.86h2.1l5.02 13.86h-1.92zm-.52-1.48-2.52-7.04-2.52 7.04zm16.18 4.72c-.92 0-1.75-.16-2.48-.48-.72-.333-1.29-.787-1.7-1.36a3.53 3.53 0 0 1-.64-2.02h1.94c.07.653.33 1.207.8 1.66.48.44 1.17.66 2.08.66q1.305 0 2.04-.64c.51-.44.76-1 .76-1.68 0-.533-.15-.967-.44-1.3a2.8 2.8 0 0 0-1.1-.76c-.44-.173-1.03-.36-1.78-.56q-1.38-.36-2.22-.72a3.66 3.66 0 0 1-1.42-1.12c-.39-.52-.58-1.213-.58-2.08 0-.76.19-1.433.58-2.02q.585-.88 1.62-1.36c.71-.32 1.51-.48 2.42-.48 1.31 0 2.37.327 3.2.98.84.653 1.31 1.52 1.42 2.6h-2q-.105-.8-.84-1.4c-.49-.413-1.15-.62-1.96-.62q-1.14 0-1.86.6-.72.58-.72 1.64 0 .76.42 1.24c.29.32.65.567 1.06.74.43.16 1.02.347 1.78.56q1.38.38 2.22.76.84.36 1.44 1.14.6.76.6 2.08 0 1.02-.54 1.92c-.36.6-.89 1.087-1.6 1.46s-1.54.56-2.5.56m21.9-14.08v1.48h-3.8V599h-1.82v-12.46h-3.82v-1.48zm15.58 13.94-3.32-5.7h-2.2v5.7h-1.82v-13.94h4.5c1.05 0 1.94.18 2.66.54.73.36 1.28.847 1.64 1.46q.54.92.54 2.1 0 1.44-.84 2.54c-.55.733-1.37 1.22-2.48 1.46l3.5 5.84zm-5.52-7.16h2.68q1.485 0 2.22-.72c.49-.493.74-1.147.74-1.96 0-.827-.25-1.467-.74-1.92q-.72-.68-2.22-.68h-2.68zm18.13-6.78v8.82q0 1.86.9 2.76c.61.6 1.46.9 2.54.9 1.06 0 1.9-.3 2.5-.9.61-.6.92-1.52.92-2.76v-8.82h1.82v8.8c0 1.16-.24 2.14-.7 2.94a4.4 4.4 0 0 1-1.9 1.76c-.79.387-1.68.58-2.66.58-.99 0-1.88-.193-2.68-.58a4.37 4.37 0 0 1-1.88-1.76c-.46-.8-.68-1.78-.68-2.94v-8.8zm17.03 6.96c0-1.36.31-2.58.92-3.66.62-1.093 1.45-1.947 2.5-2.56q1.605-.92 3.54-.92c1.52 0 2.85.367 3.98 1.1 1.14.733 1.96 1.773 2.48 3.12h-2.18q-.57-1.26-1.68-1.94c-.72-.453-1.58-.68-2.6-.68-.97 0-1.84.227-2.62.68-.77.453-1.38 1.1-1.82 1.94q-.66 1.24-.66 2.92 0 1.66.66 2.92a4.8 4.8 0 0 0 1.82 1.92c.78.453 1.65.68 2.62.68 1.02 0 1.88-.22 2.6-.66q1.11-.68 1.68-1.94h2.18c-.52 1.333-1.34 2.367-2.48 3.1-1.13.72-2.46 1.08-3.98 1.08q-1.935 0-3.54-.9a6.8 6.8 0 0 1-2.5-2.54c-.61-1.08-.92-2.3-.92-3.66m30.71-6.96v1.48h-3.8V599h-1.82v-12.46h-3.82v-1.48zm10.02 0v8.82q0 1.86.9 2.76c.62.6 1.46.9 2.54.9 1.07 0 1.9-.3 2.5-.9.62-.6.92-1.52.92-2.76v-8.82h1.82v8.8c0 1.16-.23 2.14-.7 2.94a4.36 4.36 0 0 1-1.9 1.76c-.78.387-1.67.58-2.66.58-.98 0-1.88-.193-2.68-.58a4.5 4.5 0 0 1-1.88-1.76c-.45-.8-.68-1.78-.68-2.94v-8.8zm25.06 13.94-3.32-5.7h-2.2v5.7h-1.82v-13.94h4.5c1.05 0 1.94.18 2.66.54.73.36 1.28.847 1.64 1.46q.54.92.54 2.1 0 1.44-.84 2.54c-.55.733-1.37 1.22-2.48 1.46l3.5 5.84zm-5.52-7.16h2.68q1.485 0 2.22-.72c.49-.493.74-1.147.74-1.96 0-.827-.25-1.467-.74-1.92q-.72-.68-2.22-.68h-2.68zm18.17-5.3v4.66h5.08v1.5H1291v4.8h5.68v1.5h-7.5v-13.96h7.5v1.5zm-927.584-66.228q-1.632 0-2.928-.736a5.35 5.35 0 0 1-2.048-2q-.736-1.28-.736-2.832 0-1.824.88-3.184t2.496-1.984v1.744q-1.008.464-1.552 1.344-.544.864-.544 2.08 0 1.168.544 2.096t1.552 1.456q.992.528 2.336.528 1.328 0 2.336-.528a3.8 3.8 0 0 0 1.536-1.456q.544-.928.544-2.096 0-1.216-.528-2.08-.544-.88-1.552-1.344v-1.744q1.6.624 2.48 1.984.864 1.36.864 3.184 0 1.553-.72 2.832a5.4 5.4 0 0 1-2.032 2q-1.296.736-2.928.736m-5.568-21.175q0-1.824.688-3.152.672-1.344 1.936-2.048 1.264-.72 2.976-.72t2.976.72q1.248.704 1.92 2.048.656 1.328.656 3.152v3.472h-11.152zm9.952 0q0-2.16-1.136-3.296-1.152-1.136-3.216-1.136-2.08 0-3.248 1.152-1.168 1.135-1.168 3.28v2.016h8.768zm1.2-21.409v1.456l-8.88 5.856H369v1.456h-11.168v-1.456l8.864-5.856h-8.864v-1.456zm401.824-262.88V226h-1.456v-5.056h-5.68V226h-1.456v-11.152h1.456v4.896h5.68v-4.896zm14.15 0v1.184h-3.04V226h-1.456v-9.968h-3.056v-1.184zm13.456 0v1.184h-3.04V226h-1.456v-9.968h-3.056v-1.184zm14.049 3.264q0 1.392-.96 2.32-.945.912-2.896.912h-2.144V226h-1.456v-11.152h3.6q1.887 0 2.864.912.992.912.992 2.352m-3.856 2.032q1.216 0 1.792-.528t.576-1.504q0-2.064-2.368-2.064h-2.144v4.096zm11.969 3.84-1.792 4.304h-.976l1.168-4.304zm19.07 2.128q-1.104 0-1.984-.384-.865-.4-1.36-1.088a2.8 2.8 0 0 1-.512-1.616h1.552q.08.784.64 1.328.575.528 1.664.528 1.04 0 1.632-.512.608-.528.608-1.344 0-.64-.352-1.04a2.25 2.25 0 0 0-.88-.608 14 14 0 0 0-1.424-.448q-1.104-.288-1.776-.576a2.95 2.95 0 0 1-1.136-.896q-.464-.624-.464-1.664 0-.912.464-1.616a3.03 3.03 0 0 1 1.296-1.088q.847-.384 1.936-.384 1.567 0 2.56.784 1.008.784 1.136 2.08h-1.6q-.081-.64-.672-1.12-.593-.496-1.568-.496-.912 0-1.488.48-.576.464-.576 1.312 0 .608.336.992.351.384.848.592.512.192 1.424.448 1.104.304 1.776.608.672.288 1.152.912.48.608.48 1.664 0 .816-.432 1.536t-1.28 1.168q-.849.448-2 .448m10.382-8.768q.113-1.471 1.136-2.304 1.024-.832 2.656-.832 1.089 0 1.872.4.801.384 1.2 1.056.417.672.416 1.52 0 .992-.576 1.712-.56.72-1.472.928v.08q1.04.256 1.648 1.008t.608 1.968q0 .912-.416 1.648-.415.72-1.248 1.136-.831.416-2 .416-1.695 0-2.784-.88-1.087-.896-1.216-2.528h1.408q.112.96.784 1.568.673.608 1.792.608 1.12 0 1.696-.576.592-.592.592-1.52 0-1.2-.8-1.728t-2.416-.528h-.368v-1.216h.384q1.473-.016 2.224-.48.752-.48.752-1.472 0-.848-.56-1.36-.543-.512-1.568-.512-.991 0-1.6.512-.607.512-.72 1.376z" fill="#8E8E8E"/></svg>